<svg xmlns="http://www.w3.org/2000/svg" viewBox="0 0 400 400" width="800" height="800">
<defs>
<radialGradient id="bg" cx="50%" cy="38%" r="75%">
<stop offset="0" stop-color="#ffffff"/><stop offset="1" stop-color="#e7e8eb"/>
</radialGradient>
<radialGradient id="shadow" cx="50%" cy="50%" r="50%">
<stop offset="0" stop-color="#000" stop-opacity=".28"/><stop offset="1" stop-color="#000" stop-opacity="0"/>
</radialGradient>
<linearGradient id="dark" x1="0" y1="0" x2="0" y2="1">
<stop offset="0" stop-color="#3a3a41"/><stop offset="1" stop-color="#141417"/>
</linearGradient>
<linearGradient id="darkH" x1="0" y1="0" x2="1" y2="0">
<stop offset="0" stop-color="#18181b"/><stop offset=".5" stop-color="#3b3b42"/><stop offset="1" stop-color="#18181b"/>
</linearGradient>
<linearGradient id="metal" x1="0" y1="0" x2="0" y2="1">
<stop offset="0" stop-color="#f1f2f4"/><stop offset=".45" stop-color="#b9bdc5"/><stop offset=".55" stop-color="#9ea3ad"/><stop offset="1" stop-color="#d9dce1"/>
</linearGradient>
<linearGradient id="metalH" x1="0" y1="0" x2="1" y2="0">
<stop offset="0" stop-color="#9ea3ad"/><stop offset=".5" stop-color="#eef0f2"/><stop offset="1" stop-color="#9ea3ad"/>
</linearGradient>
<linearGradient id="red" x1="0" y1="0" x2="0" y2="1">
<stop offset="0" stop-color="#ef3b41"/><stop offset="1" stop-color="#b3141a"/>
</linearGradient>
<linearGradient id="redH" x1="0" y1="0" x2="1" y2="0">
<stop offset="0" stop-color="#a3121a"/><stop offset=".5" stop-color="#ec333a"/><stop offset="1" stop-color="#a3121a"/>
</linearGradient>
<linearGradient id="screen" x1="0" y1="0" x2="1" y2="1">
<stop offset="0" stop-color="#2b3445"/><stop offset=".6" stop-color="#0f141c"/><stop offset="1" stop-color="#1b2230"/>
</linearGradient>
<linearGradient id="glass" x1="0" y1="0" x2="1" y2="0">
<stop offset="0" stop-color="#d9e6ee" stop-opacity=".9"/><stop offset=".3" stop-color="#ffffff" stop-opacity=".95"/><stop offset="1" stop-color="#b7c7d2" stop-opacity=".9"/>
</linearGradient>
<linearGradient id="amber" x1="0" y1="0" x2="0" y2="1">
<stop offset="0" stop-color="#f6c66b"/><stop offset="1" stop-color="#c98a1c"/>
</linearGradient>
<linearGradient id="wood" x1="0" y1="0" x2="1" y2="0">
<stop offset="0" stop-color="#8a5a33"/><stop offset=".5" stop-color="#c08a5a"/><stop offset="1" stop-color="#8a5a33"/>
</linearGradient>
<linearGradient id="led" x1="0" y1="0" x2="0" y2="1">
<stop offset="0" stop-color="#ffffff"/><stop offset="1" stop-color="#cfe3ff"/>
</linearGradient>
</defs>
<rect width="400" height="400" fill="url(#bg)"/>
<ellipse cx="205" cy="312" rx="140" ry="14" fill="url(#shadow)"/>
<path d="M120 250q-40-90 60-110t90 60-80 70-70-40 70-60 80 20" fill="none" stroke="#d71920" stroke-width="14" stroke-linecap="round"/>
<path d="M140 270q-30-80 70-100t70 70-90 50" fill="none" stroke="#18181b" stroke-width="14" stroke-linecap="round"/>
<g transform="rotate(-30 110 270)">
<rect x="70" y="256" width="60" height="26" rx="10" fill="url(#red)"/>
<path d="M128 262l38-6v8l-38 6zM128 278l38 6v-8l-38-6z" fill="url(#metal)"/>
</g>
<g transform="rotate(20 300 270)">
<rect x="250" y="256" width="60" height="26" rx="10" fill="url(#dark)"/>
<path d="M308 262l38-6v8l-38 6zM308 278l38 6v-8l-38-6z" fill="url(#metal)"/>
</g>
</svg>