<svg xmlns="http://www.w3.org/2000/svg" viewBox="0 0 400 400" width="800" height="800">
<defs>
<radialGradient id="bg" cx="50%" cy="38%" r="75%">
<stop offset="0" stop-color="#ffffff"/><stop offset="1" stop-color="#e7e8eb"/>
</radialGradient>
<radialGradient id="shadow" cx="50%" cy="50%" r="50%">
<stop offset="0" stop-color="#000" stop-opacity=".28"/><stop offset="1" stop-color="#000" stop-opacity="0"/>
</radialGradient>
<linearGradient id="dark" x1="0" y1="0" x2="0" y2="1">
<stop offset="0" stop-color="#3a3a41"/><stop offset="1" stop-color="#141417"/>
</linearGradient>
<linearGradient id="darkH" x1="0" y1="0" x2="1" y2="0">
<stop offset="0" stop-color="#18181b"/><stop offset=".5" stop-color="#3b3b42"/><stop offset="1" stop-color="#18181b"/>
</linearGradient>
<linearGradient id="metal" x1="0" y1="0" x2="0" y2="1">
<stop offset="0" stop-color="#f1f2f4"/><stop offset=".45" stop-color="#b9bdc5"/><stop offset=".55" stop-color="#9ea3ad"/><stop offset="1" stop-color="#d9dce1"/>
</linearGradient>
<linearGradient id="metalH" x1="0" y1="0" x2="1" y2="0">
<stop offset="0" stop-color="#9ea3ad"/><stop offset=".5" stop-color="#eef0f2"/><stop offset="1" stop-color="#9ea3ad"/>
</linearGradient>
<linearGradient id="red" x1="0" y1="0" x2="0" y2="1">
<stop offset="0" stop-color="#ef3b41"/><stop offset="1" stop-color="#b3141a"/>
</linearGradient>
<linearGradient id="redH" x1="0" y1="0" x2="1" y2="0">
<stop offset="0" stop-color="#a3121a"/><stop offset=".5" stop-color="#ec333a"/><stop offset="1" stop-color="#a3121a"/>
</linearGradient>
<linearGradient id="screen" x1="0" y1="0" x2="1" y2="1">
<stop offset="0" stop-color="#2b3445"/><stop offset=".6" stop-color="#0f141c"/><stop offset="1" stop-color="#1b2230"/>
</linearGradient>
<linearGradient id="glass" x1="0" y1="0" x2="1" y2="0">
<stop offset="0" stop-color="#d9e6ee" stop-opacity=".9"/><stop offset=".3" stop-color="#ffffff" stop-opacity=".95"/><stop offset="1" stop-color="#b7c7d2" stop-opacity=".9"/>
</linearGradient>
<linearGradient id="amber" x1="0" y1="0" x2="0" y2="1">
<stop offset="0" stop-color="#f6c66b"/><stop offset="1" stop-color="#c98a1c"/>
</linearGradient>
<linearGradient id="wood" x1="0" y1="0" x2="1" y2="0">
<stop offset="0" stop-color="#8a5a33"/><stop offset=".5" stop-color="#c08a5a"/><stop offset="1" stop-color="#8a5a33"/>
</linearGradient>
<linearGradient id="led" x1="0" y1="0" x2="0" y2="1">
<stop offset="0" stop-color="#ffffff"/><stop offset="1" stop-color="#cfe3ff"/>
</linearGradient>
</defs>
<rect width="400" height="400" fill="url(#bg)"/>
<ellipse cx="205" cy="316" rx="175" ry="12" fill="url(#shadow)"/>
<path d="M40 250l10-50q4-14 18-14h56l30-44q8-12 22-12h50q14 0 14 14v52h126q10 0 12 10l4 44z" fill="url(#red)"/>
<path d="M150 186l26-38q4-6 12-6h34v44z" fill="#2b3445"/>
<path d="M226 180h144v14h-144z" fill="url(#dark)"/>
<path d="M226 176h146q6 0 6 6v4h-152z" fill="#3a3a41"/>
<path d="M242 180v12" stroke="#55555e" stroke-width="2"/><path d="M264 180v12" stroke="#55555e" stroke-width="2"/><path d="M286 180v12" stroke="#55555e" stroke-width="2"/><path d="M308 180v12" stroke="#55555e" stroke-width="2"/><path d="M330 180v12" stroke="#55555e" stroke-width="2"/><path d="M352 180v12" stroke="#55555e" stroke-width="2"/>
<path d="M36 250h346v22q0 10-10 10h-326q-10 0-10-10z" fill="url(#dark)"/>
<rect x="44" y="214" width="20" height="10" rx="4" fill="#fde68a"/>
<rect x="364" y="210" width="12" height="20" rx="3" fill="#7f1d1d"/>
<circle cx="100" cy="280" r="34" fill="#18181b"/><circle cx="100" cy="280" r="16" fill="url(#metal)"/>
<circle cx="310" cy="280" r="34" fill="#18181b"/><circle cx="310" cy="280" r="16" fill="url(#metal)"/>
<path d="M60 210h90" stroke="#fff" stroke-width="3" opacity=".25"/>
</svg>