<svg xmlns="http://www.w3.org/2000/svg" viewBox="0 0 400 400" width="800" height="800">
<defs>
<radialGradient id="bg" cx="50%" cy="38%" r="75%">
<stop offset="0" stop-color="#ffffff"/><stop offset="1" stop-color="#e7e8eb"/>
</radialGradient>
<radialGradient id="shadow" cx="50%" cy="50%" r="50%">
<stop offset="0" stop-color="#000" stop-opacity=".28"/><stop offset="1" stop-color="#000" stop-opacity="0"/>
</radialGradient>
<linearGradient id="dark" x1="0" y1="0" x2="0" y2="1">
<stop offset="0" stop-color="#3a3a41"/><stop offset="1" stop-color="#141417"/>
</linearGradient>
<linearGradient id="darkH" x1="0" y1="0" x2="1" y2="0">
<stop offset="0" stop-color="#18181b"/><stop offset=".5" stop-color="#3b3b42"/><stop offset="1" stop-color="#18181b"/>
</linearGradient>
<linearGradient id="metal" x1="0" y1="0" x2="0" y2="1">
<stop offset="0" stop-color="#f1f2f4"/><stop offset=".45" stop-color="#b9bdc5"/><stop offset=".55" stop-color="#9ea3ad"/><stop offset="1" stop-color="#d9dce1"/>
</linearGradient>
<linearGradient id="metalH" x1="0" y1="0" x2="1" y2="0">
<stop offset="0" stop-color="#9ea3ad"/><stop offset=".5" stop-color="#eef0f2"/><stop offset="1" stop-color="#9ea3ad"/>
</linearGradient>
<linearGradient id="red" x1="0" y1="0" x2="0" y2="1">
<stop offset="0" stop-color="#ef3b41"/><stop offset="1" stop-color="#b3141a"/>
</linearGradient>
<linearGradient id="redH" x1="0" y1="0" x2="1" y2="0">
<stop offset="0" stop-color="#a3121a"/><stop offset=".5" stop-color="#ec333a"/><stop offset="1" stop-color="#a3121a"/>
</linearGradient>
<linearGradient id="screen" x1="0" y1="0" x2="1" y2="1">
<stop offset="0" stop-color="#2b3445"/><stop offset=".6" stop-color="#0f141c"/><stop offset="1" stop-color="#1b2230"/>
</linearGradient>
<linearGradient id="glass" x1="0" y1="0" x2="1" y2="0">
<stop offset="0" stop-color="#d9e6ee" stop-opacity=".9"/><stop offset=".3" stop-color="#ffffff" stop-opacity=".95"/><stop offset="1" stop-color="#b7c7d2" stop-opacity=".9"/>
</linearGradient>
<linearGradient id="amber" x1="0" y1="0" x2="0" y2="1">
<stop offset="0" stop-color="#f6c66b"/><stop offset="1" stop-color="#c98a1c"/>
</linearGradient>
<linearGradient id="wood" x1="0" y1="0" x2="1" y2="0">
<stop offset="0" stop-color="#8a5a33"/><stop offset=".5" stop-color="#c08a5a"/><stop offset="1" stop-color="#8a5a33"/>
</linearGradient>
<linearGradient id="led" x1="0" y1="0" x2="0" y2="1">
<stop offset="0" stop-color="#ffffff"/><stop offset="1" stop-color="#cfe3ff"/>
</linearGradient>
</defs>
<rect width="400" height="400" fill="url(#bg)"/>
<ellipse cx="200" cy="306" rx="175" ry="12" fill="url(#shadow)"/>
<path d="M50 170h300l10 30v86q0 12-12 12h-296q-12 0-12-12v-86z" fill="url(#metal)"/>
<path d="M50 170h300l10 30h-320z" fill="#eef0f2"/>
<g opacity=".45" stroke="#7f858f" stroke-width="2">
<path d="M62 214l10 10M72 244l10 10M62 268l10 10"/><path d="M87 214l10 10M97 244l10 10M87 268l10 10"/><path d="M112 214l10 10M122 244l10 10M112 268l10 10"/><path d="M137 214l10 10M147 244l10 10M137 268l10 10"/><path d="M162 214l10 10M172 244l10 10M162 268l10 10"/><path d="M187 214l10 10M197 244l10 10M187 268l10 10"/><path d="M212 214l10 10M222 244l10 10M212 268l10 10"/><path d="M237 214l10 10M247 244l10 10M237 268l10 10"/><path d="M262 214l10 10M272 244l10 10M262 268l10 10"/><path d="M287 214l10 10M297 244l10 10M287 268l10 10"/><path d="M312 214l10 10M322 244l10 10M312 268l10 10"/><path d="M337 214l10 10M347 244l10 10M337 268l10 10"/>
</g>
<rect x="40" y="200" width="320" height="6" fill="#8a8f99"/>
<rect x="110" y="214" width="40" height="18" rx="5" fill="url(#dark)"/><rect x="250" y="214" width="40" height="18" rx="5" fill="url(#dark)"/>
<circle cx="130" cy="223" r="4" fill="#d71920"/><circle cx="270" cy="223" r="4" fill="#d71920"/>
<path d="M40 286h320" stroke="#7f858f" stroke-width="3"/>
</svg>